<?xml version="1.0" encoding="UTF-8"?>
<svg id="_图层_1" data-name="图层 1" xmlns="http://www.w3.org/2000/svg" viewBox="0 0 32 32">
  <defs>
    <style>
      .cls-1 {
        fill: #fff;
      }
    </style>
  </defs>
  <path class="cls-1" d="m32.36,31.94H.36c0-10.67,0-21.33,0-32,10.67,0,21.33,0,32,0,0,10.67,0,21.33,0,32Zm-19.28-3.07c1.62,1.44,4.05.78,4.21-1.08.36-4.26.56-8.53.62-12.8.03-2.16-.16-2.19-2.32-2.58-.93-.17-1.42-.58-1.28-1.58.05-.37.05-.75.03-1.12-.05-1.02.43-1.55,1.44-1.63.93-.08,1.85-.19,2.78-.29.04-.14.09-.27.13-.41-.44-.25-.86-.69-1.31-.72-1.65-.11-3.32-.13-4.97-.1-.61.01-1.22.26-1.83.4-.04.14-.09.28-.13.42.25.15.48.32.74.44.95.43,1.35,1.24,1.37,2.2.04,1.74.1,3.5-.05,5.23-.38,4.27-1.18,8.47-2.65,12.53-.15.42-.15.9-.24,1.5,1.12-.7,1.95-1.95,2.44-3.97.75-3.06,1.34-6.16,2.02-9.25.17-.78.15-1.76,1.39-1.68,1.2.08,1.08,1.11,1.09,1.78.05,2.91,0,5.82-.07,8.73-.02.7-.18,1.4-.35,2.08-.19.78-.6,1.32-1.52,1.38-.48.03-.94.31-1.53.52Zm11.64-16.56c-.78,1.63-1.41,3.02-2.1,4.38-.13.25-.44.51-.71.58-.56.14-1.16.1-1.71.25-.47.13-.89.42-1.34.64.41.26.8.54,1.22.75.25.13.56.18.85.19,1.25.05,1.77.74,1.79,1.92.03,1.79.08,3.57.1,5.36.03,1.99.02,1.98-1.9,2.67-.23.08-.4.36-.59.54.23.19.43.5.68.56,1.45.31,2.69-.46,2.87-1.97.25-2.14.34-4.31.43-6.46.09-2.15.33-2.46,2.43-2.85.42-.08.81-.35,1.21-.53-.02-.13-.05-.26-.07-.39-.75-.16-1.5-.33-2.26-.48-1.32-.25-1.63-.76-1.08-1.98.23-.52.64-.96.98-1.43.45-.6.94-1.17,1.36-1.78.42-.62.28-1.15-.45-1.35-2-.55-4-.4-6.12,0,.37,1.42,1.43.85,2.16,1,.82.17,1.65.26,2.26.36Zm3.17-5.82c0-.12,0-.25.01-.37-.43-.16-.85-.41-1.29-.45-1.12-.11-2.24-.18-3.36-.18-.93,0-1.29-.4-1.18-1.3.09-.73.14-1.45.22-2.18-.09-.07-.17-.13-.26-.2-.3.25-.71.44-.87.76-1.06,2-2.33,7.18-1.92,7.84.19-.16.46-.28.54-.48.97-2.56,3.05-3.03,5.44-2.96.5.01,1,0,1.49-.09.41-.07.79-.26,1.19-.39Zm-18.45,11.94c-1.55.59-4.14,9.03-3.24,10.84,1.67-3.6,2.68-7.05,3.24-10.84Zm-3.93-8.35c-.21,1.42,2.19,3.12,3.88,2.75-.15-1.28-1.83-2.47-3.88-2.75Zm4.66-4.75c-.29-1.66-2.29-3.31-3.69-3.13.17,1.34,2.08,2.99,3.69,3.13Zm5.15.69c.48-1.93-.91-4.1-2.43-3.84.44,1.48,1.02,2.82,2.43,3.84Z"/>
  <path d="m13.08,28.88c.59-.21,1.05-.48,1.53-.52.92-.06,1.33-.61,1.52-1.38.17-.68.33-1.39.35-2.08.07-2.91.12-5.82.07-8.73-.01-.68.11-1.71-1.09-1.78-1.24-.08-1.22.9-1.39,1.68-.68,3.08-1.28,6.18-2.02,9.25-.49,2.03-1.32,3.27-2.44,3.97.09-.6.09-1.08.24-1.5,1.47-4.05,2.27-8.25,2.65-12.53.16-1.73.09-3.49.05-5.23-.02-.96-.41-1.77-1.37-2.2-.26-.12-.49-.29-.74-.44.04-.14.09-.28.13-.42.61-.14,1.22-.38,1.83-.4,1.66-.03,3.32-.01,4.97.1.45.03.87.47,1.31.72-.04.14-.09.27-.13.41-.92.1-1.85.21-2.78.29-1.01.09-1.5.61-1.44,1.63.02.37.02.75-.03,1.12-.14,1,.35,1.41,1.28,1.58,2.16.39,2.35.42,2.32,2.58-.06,4.27-.26,8.55-.62,12.8-.16,1.86-2.59,2.52-4.21,1.08Z"/>
  <path d="m24.72,12.32c-.61-.09-1.45-.18-2.26-.36-.73-.15-1.79.42-2.16-1,2.12-.4,4.12-.55,6.12,0,.74.2.88.73.45,1.35-.42.61-.91,1.18-1.36,1.78-.34.46-.75.91-.98,1.43-.54,1.23-.23,1.73,1.08,1.98.76.15,1.51.32,2.26.48.02.13.05.26.07.39-.4.18-.79.45-1.21.53-2.09.39-2.34.7-2.43,2.85-.09,2.16-.18,4.32-.43,6.46-.18,1.51-1.43,2.28-2.87,1.97-.26-.05-.46-.37-.68-.56.2-.18.36-.46.59-.54,1.91-.69,1.93-.68,1.9-2.67-.02-1.79-.07-3.57-.1-5.36-.02-1.19-.54-1.88-1.79-1.92-.29-.01-.59-.07-.85-.19-.43-.21-.82-.5-1.22-.75.44-.22.87-.51,1.34-.64.55-.15,1.16-.11,1.71-.25.27-.07.58-.32.71-.58.69-1.36,1.33-2.75,2.1-4.38Z"/>
  <path d="m27.89,6.49c-.39.13-.78.32-1.19.39-.49.08-1,.1-1.49.09-2.39-.07-4.47.4-5.44,2.96-.07.2-.35.32-.54.48-.41-.67.86-5.84,1.92-7.84.17-.32.58-.51.87-.76.09.07.17.13.26.2-.07.73-.13,1.46-.22,2.18-.11.9.26,1.3,1.18,1.3,1.12,0,2.25.07,3.36.18.44.04.86.29,1.29.45,0,.12,0,.25-.01.37Z"/>
  <path d="m9.44,18.43c-.57,3.78-1.58,7.24-3.24,10.84-.9-1.81,1.69-10.25,3.24-10.84Z"/>
  <path d="m5.51,10.08c2.04.28,3.72,1.47,3.88,2.75-1.68.37-4.08-1.33-3.88-2.75Z"/>
  <path d="m10.17,5.33c-1.61-.13-3.52-1.79-3.69-3.13,1.4-.18,3.4,1.47,3.69,3.13Z"/>
  <path d="m15.32,6.02c-1.42-1.02-2-2.35-2.43-3.84,1.53-.26,2.92,1.9,2.43,3.84Z"/>
</svg>